<svg xmlns="http://www.w3.org/2000/svg" viewBox="0 0 330 416"><defs><style>.cls-1{fill:none;}.cls-2{fill:#4a7bbf;}.cls-3{fill:#4a7ebc;}</style></defs><g id="Слой_2" data-name="Слой 2"><g id="Слой_1-2" data-name="Слой 1"><path class="cls-1" d="M256.92,25.84H169.23c5.34,60.21-52.27,80-78,83.09,43.88-2.89,77.54-18.3,77.54-18.3s95.73-37.12,142.13-14.14A54.08,54.08,0,0,0,256.92,25.84Zm-109.64,0H76.08A54.08,54.08,0,0,0,22,79.92v20.92a171.28,171.28,0,0,0,48.67,8.44h0C110,108.21,163.35,84,147.28,25.84ZM166,136.66a107.92,107.92,0,0,0-84.55,175c-1.07-5.59-4.39-27.11,4.72-42.54,7.17-12.15,17-27.75,48.85-28.26,16.24-.26,44.83,7.34,43.41,48.34-1,29.45-27.52,36.17-40.52,33.87-19.23-3.4-28-19.47-27.74-29.61.34-15.44,10.37-22.63,19-25.5a20.94,20.94,0,1,1,8.75,40h-.14c5.93,1.9,11.46,1.78,18.36-3.91,11.57-9.53,9.44-31,.51-39.17-8.17-7.47-31.15-14.28-44.77-4.07-22.18,16.64-20.48,37.13-16.39,50.64s19.83,26.26,29.46,33A107.92,107.92,0,1,0,166,136.66Zm0,0a107.92,107.92,0,0,0-84.55,175c-1.07-5.59-4.39-27.11,4.72-42.54,7.17-12.15,17-27.75,48.85-28.26,16.24-.26,44.83,7.34,43.41,48.34-1,29.45-27.52,36.17-40.52,33.87-19.23-3.4-28-19.47-27.74-29.61.34-15.44,10.37-22.63,19-25.5a20.94,20.94,0,1,1,8.75,40h-.14c5.93,1.9,11.46,1.78,18.36-3.91,11.57-9.53,9.44-31,.51-39.17-8.17-7.47-31.15-14.28-44.77-4.07-22.18,16.64-20.48,37.13-16.39,50.64s19.83,26.26,29.46,33A107.92,107.92,0,1,0,166,136.66Zm0,0a107.92,107.92,0,0,0-84.55,175c-1.07-5.59-4.39-27.11,4.72-42.54,7.17-12.15,17-27.75,48.85-28.26,16.24-.26,44.83,7.34,43.41,48.34-1,29.45-27.52,36.17-40.52,33.87-19.23-3.4-28-19.47-27.74-29.61.34-15.44,10.37-22.63,19-25.5a20.94,20.94,0,1,1,8.75,40h-.14c5.93,1.9,11.46,1.78,18.36-3.91,11.57-9.53,9.44-31,.51-39.17-8.17-7.47-31.15-14.28-44.77-4.07-22.18,16.64-20.48,37.13-16.39,50.64s19.83,26.26,29.46,33A107.92,107.92,0,1,0,166,136.66Z"/><path class="cls-2" d="M267.5,0H62.5A62.5,62.5,0,0,0,0,62.5v291A62.5,62.5,0,0,0,62.5,416h205A62.5,62.5,0,0,0,330,353.5V62.5A62.5,62.5,0,0,0,267.5,0ZM256.92,25.84a54.08,54.08,0,0,1,54,50.65c-46.4-23-142.13,14.14-142.13,14.14S135.1,106,91.22,108.93c25.74-3.13,83.35-22.88,78-83.09ZM22,79.92A54.08,54.08,0,0,1,76.08,25.84h71.2C163.35,84,110,108.21,70.71,109.28h0A171.28,171.28,0,0,1,22,100.84ZM311,336.08a54.08,54.08,0,0,1-54.08,54.08H76.08A54.08,54.08,0,0,1,22,336.08V115.89c72.43,25,148.26-9.7,148.26-9.7S264.6,68.4,311,91.38Z"/><path class="cls-1" d="M170.26,106.19S94.43,140.91,22,115.89V336.08a54.08,54.08,0,0,0,54.08,54.08H256.92A54.08,54.08,0,0,0,311,336.08V91.38C264.6,68.4,170.26,106.19,170.26,106.19ZM166,352.49a107.26,107.26,0,0,1-41.06-8.1c-9.63-6.75-25.36-19.5-29.46-33s-5.79-34,16.39-50.64c13.62-10.21,36.6-3.4,44.77,4.07,8.93,8.15,11.06,29.64-.51,39.17-6.9,5.69-12.43,5.81-18.36,3.91h.14a20.94,20.94,0,1,0-8.75-40c-8.62,2.87-18.65,10.06-19,25.5-.22,10.14,8.51,26.21,27.74,29.61,13,2.3,39.49-4.42,40.52-33.87,1.42-41-27.17-48.6-43.41-48.34-31.83.51-41.68,16.11-48.85,28.26-9.11,15.43-5.79,37-4.72,42.54A107.91,107.91,0,1,1,166,352.49Z"/><rect class="cls-3" x="194" y="40.06" width="16.6" height="16.98" rx="2.74"/><rect class="cls-3" x="221.06" y="40.06" width="16.6" height="16.98" rx="2.74"/><rect class="cls-3" x="248" y="40.06" width="16.6" height="16.98" rx="2.74"/><path class="cls-3" d="M273.91,244.57a107.94,107.94,0,0,1-149,99.82c-9.63-6.75-25.36-19.5-29.46-33s-5.79-34,16.39-50.64c13.62-10.21,36.6-3.4,44.77,4.07,8.93,8.15,11.06,29.64-.51,39.17-6.9,5.69-12.43,5.81-18.36,3.91h.14a20.94,20.94,0,1,0-8.75-40c-8.62,2.87-18.65,10.06-19,25.5-.22,10.14,8.51,26.21,27.74,29.61,13,2.3,39.49-4.42,40.52-33.87,1.42-41-27.17-48.6-43.41-48.34-31.83.51-41.68,16.11-48.85,28.26-9.11,15.43-5.79,37-4.72,42.54a107.91,107.91,0,1,1,192.46-67.06Z"/><path class="cls-1" d="M81.74,313s-.11-.49-.29-1.37"/><path class="cls-1" d="M129.16,267.93a27.32,27.32,0,0,1,10.46-1.57"/><path class="cls-1" d="M132.64,349.43s-3.18-1.86-7.7-5"/><path class="cls-1" d="M137.77,307.89a75.4,75.4,0,0,1-7.86-3.23"/><path class="cls-1" d="M22,100.84l-1.5-.51"/></g></g></svg>